<?xml version="1.0" encoding="utf-8"?>
<!-- Generator: Adobe Illustrator 15.1.0, SVG Export Plug-In . SVG Version: 6.00 Build 0)  -->
<!DOCTYPE svg PUBLIC "-//W3C//DTD SVG 1.1//EN" "http://www.w3.org/Graphics/SVG/1.1/DTD/svg11.dtd">
<svg version="1.1" id="Camada_1" xmlns="http://www.w3.org/2000/svg" xmlns:xlink="http://www.w3.org/1999/xlink" x="0px" y="0px"
	 width="73.918px" height="29.697px" viewBox="0 0 73.918 29.697" enable-background="new 0 0 73.918 29.697" xml:space="preserve">
<g>
	<path fill="#444444" d="M3.713,13.818v5.294h1.033v-2.873h3.713v5.229c0,0.302-0.113,0.564-0.339,0.791
		c-0.225,0.226-0.49,0.341-0.791,0.341H1.13c-0.302,0-0.564-0.113-0.791-0.34C0.113,22.034,0,21.771,0,21.47V4.358
		c0-0.301,0.113-0.565,0.339-0.791C0.565,3.342,0.828,3.229,1.13,3.229h6.199c0.301,0,0.565,0.113,0.791,0.339
		s0.339,0.49,0.339,0.791v9.46L3.713,13.818L3.713,13.818z M3.713,10.363h1.033V6.715H3.713V10.363z"/>
	<path fill="#444444" d="M12.785,22.601H9.072V0h3.713V22.601z"/>
	<path fill="#444444" d="M17.208,3.552h-3.713V0h3.713V3.552z M17.208,22.601h-3.713V3.971h3.713V22.601z"/>
	<path fill="#444444" d="M21.437,13.818v5.294h1.033v-2.873h3.713v5.229c0,0.302-0.113,0.564-0.339,0.791
		c-0.227,0.226-0.49,0.339-0.791,0.339h-6.199c-0.302,0-0.564-0.113-0.791-0.339c-0.226-0.227-0.339-0.489-0.339-0.791V4.358
		c0-0.301,0.113-0.565,0.339-0.791c0.227-0.226,0.489-0.339,0.791-0.339h6.199c0.301,0,0.564,0.113,0.791,0.339
		c0.226,0.226,0.339,0.49,0.339,0.791v9.46H21.437z M21.437,10.363h1.033V6.715h-1.033V10.363z"/>
	<path fill="#444444" d="M30.508,22.601h-3.712V0h3.712V22.601z"/>
	<path fill="#444444" d="M34.77,19.112h1.033v-2.873h3.713v5.229c0,0.302-0.113,0.564-0.34,0.791
		c-0.225,0.226-0.489,0.339-0.79,0.339h-6.199c-0.302,0-0.564-0.113-0.791-0.339c-0.226-0.227-0.339-0.489-0.339-0.791V4.358
		c0-0.301,0.113-0.565,0.339-0.791c0.227-0.226,0.489-0.339,0.791-0.339h6.199c0.301,0,0.565,0.113,0.79,0.339
		c0.227,0.226,0.34,0.49,0.34,0.791v9.46h-3.713V6.715H34.77V19.112z"/>
	<path fill="#444444" d="M43.777,13.818v5.294h1.033v-2.873h3.713v5.229c0,0.302-0.112,0.564-0.34,0.791
		c-0.226,0.226-0.489,0.339-0.791,0.339h-6.198c-0.302,0-0.564-0.113-0.791-0.339c-0.227-0.227-0.339-0.489-0.339-0.791V4.358
		c0-0.301,0.112-0.565,0.339-0.791s0.489-0.339,0.791-0.339h6.198c0.302,0,0.565,0.113,0.791,0.339
		c0.228,0.226,0.34,0.49,0.34,0.791v9.46H43.777z M43.777,10.363h1.033V6.715h-1.033V10.363z"/>
	<path fill="#444444" d="M48.975,3.229h7.264l-2.904,15.885h2.485v3.486h-6.845l2.904-15.886h-2.904V3.229z"/>
	<path fill="#444444" d="M63.536,3.229c0.301,0,0.564,0.113,0.791,0.339c0.225,0.226,0.338,0.49,0.338,0.791v0.097v18.145h-7.328
		c-0.301,0-0.564-0.113-0.791-0.34s-0.34-0.488-0.34-0.791V9.847c0-0.301,0.113-0.564,0.34-0.791
		c0.227-0.226,0.49-0.339,0.791-0.339h3.615V6.715h-4.746V3.229H63.536z M59.918,19.112h1.033v-6.908h-1.033V19.112z"/>
	<path fill="#444444" d="M69.862,6.715h-1.033v15.886h-3.713V3.229h7.232h0.097c0.302,0,0.565,0.113,0.791,0.339
		c0.228,0.226,0.339,0.49,0.339,0.791v0.097v6.199h-3.713V6.715z"/>
</g>
<rect x="0.205" y="24.16" fill="#444444" width="73.713" height="5.537"/>
</svg>
