<?xml version="1.0" encoding="utf-8"?>
<!-- Generator: Adobe Illustrator 15.1.0, SVG Export Plug-In . SVG Version: 6.00 Build 0)  -->
<!DOCTYPE svg PUBLIC "-//W3C//DTD SVG 1.1//EN" "http://www.w3.org/Graphics/SVG/1.1/DTD/svg11.dtd">
<svg version="1.1" id="Camada_1" xmlns:sketch="http://www.bohemiancoding.com/sketch/ns"
	 xmlns="http://www.w3.org/2000/svg" xmlns:xlink="http://www.w3.org/1999/xlink" x="0px" y="0px" width="50px" height="50px"
	 viewBox="-22.25 -22.25 50 50" enable-background="new -22.25 -22.25 50 50" xml:space="preserve">
<title></title>
<path d="M2.75-22.25c-13.808,0-25,11.192-25,25s11.192,25,25,25s25-11.192,25-25S16.558-22.25,2.75-22.25z M2.75,25.478
	c-12.552,0-22.727-10.174-22.727-22.728c0-12.552,10.175-22.727,22.727-22.727c12.554,0,22.728,10.175,22.728,22.727
	C25.478,15.304,15.304,25.478,2.75,25.478z"/>
<path d="M-1.032,17.181V2.75h-2.933v-4.784h2.933v-2.891c0-3.903,1.168-6.716,5.438-6.716h5.083v4.773H5.911
	c-1.793,0-2.199,1.19-2.199,2.438v2.396h5.515L8.472,2.75h-4.76v14.431H-1.032z"/>
</svg>
