<?xml version="1.0" encoding="utf-8"?>
<!-- Generator: Adobe Illustrator 15.1.0, SVG Export Plug-In . SVG Version: 6.00 Build 0)  -->
<!DOCTYPE svg PUBLIC "-//W3C//DTD SVG 1.1//EN" "http://www.w3.org/Graphics/SVG/1.1/DTD/svg11.dtd">
<svg version="1.1" id="Camada_1" xmlns="http://www.w3.org/2000/svg" xmlns:xlink="http://www.w3.org/1999/xlink" x="0px" y="0px"
	 width="2007.286px" height="543.915px" viewBox="0 0 2007.286 543.915" enable-background="new 0 0 2007.286 543.915"
	 xml:space="preserve">
<g>
	<path d="M332.759,304.124L209.208,167.415H76.155L216.52,314.361L105.096,486.708C41.146,436.949,0,359.262,0,271.958
		C0,121.76,121.76,0,271.958,0c20.902,0,41.252,2.366,60.801,6.831V304.124z"/>
	<path d="M284.509,385.272l48.25,50.443v101.369c-19.549,4.465-39.899,6.83-60.801,6.83c-25.967,0-51.082-3.645-74.867-10.439
		L284.509,385.272z"/>
	<path d="M429.261,50.085c69.383,49.281,114.654,130.289,114.654,221.873c0,91.582-45.271,172.591-114.654,221.872V50.085z"/>
</g>
<path d="M697.317,405.843v87.838h-78.342V52.112h78.342v246.898l100.304-110.984h108.018L791.686,307.321l120.481,186.359h-99.709
	L736.489,364.89L697.317,405.843z"/>
<path d="M1194.085,493.681h-74.782v-27.895c-18.992,21.961-45.699,35.018-77.749,35.018c-72.407,0-120.481-54.01-120.481-134.133
	V188.026h78.343v178.645c0,17.211,5.935,59.943,56.977,59.943c35.017,0,59.351-26.113,59.351-59.943V188.026h78.343V493.681z"/>
<path d="M1301.62,493.681h-78.343V52.112h78.343V493.681z"/>
<path d="M1502.214,493.087c-89.62,9.496-137.101-44.512-137.101-128.197V257.466h-36.797v-69.439h36.797V52.276h78.343v135.75
	h55.196v69.439h-55.196v108.018c0,42.732,19.586,58.758,58.758,56.383V493.087z"/>
<path d="M1702.223,255.06c-30.571,0.029-57.569,3-75.375,21.992c-16.618,17.211-19.586,42.139-19.586,66.473v150.156h-78.343
	V188.026h74.782v30.268c24.927-30.861,61.725-42.139,98.521-36.203V255.06z"/>
<path d="M1927.756,465.192c-20.179,21.367-51.041,34.424-93.773,34.424c-64.692,0-124.043-32.643-124.043-99.115
	c0-68.848,57.57-86.652,125.229-92.588c51.042-4.748,87.246-10.682,87.246-35.609c0-16.025-20.773-29.082-55.79-29.082
	c-27.895,0-59.944,12.463-67.066,38.578h-78.343c7.716-58.164,63.506-101.49,143.629-101.49
	c124.043,0,133.539,80.123,133.539,104.457v159.061c0,14.838,4.748,37.984,8.902,49.854h-71.814
	C1931.911,485.966,1929.537,476.47,1927.756,465.192z"/>
<rect x="765.571" y="1654.091" width="0" height="8"/>
</svg>
