<?xml version="1.0" encoding="utf-8"?>
<!-- Generator: Adobe Illustrator 15.1.0, SVG Export Plug-In . SVG Version: 6.00 Build 0)  -->
<!DOCTYPE svg PUBLIC "-//W3C//DTD SVG 1.1//EN" "http://www.w3.org/Graphics/SVG/1.1/DTD/svg11.dtd">
<svg version="1.1" id="Camada_1" xmlns:sketch="http://www.bohemiancoding.com/sketch/ns"
	 xmlns="http://www.w3.org/2000/svg" xmlns:xlink="http://www.w3.org/1999/xlink" x="0px" y="0px" width="50px" height="50px"
	 viewBox="0 0 50 50" enable-background="new 0 0 50 50" xml:space="preserve">
<title></title>
<path d="M25,0C11.193,0,0,11.193,0,25c0,13.807,11.193,25,25,25c13.807,0,25-11.193,25-25C50,11.193,38.807,0,25,0z M25,47
	C12.85,47,3,37.15,3,25C3,12.85,12.85,3,25,3c12.15,0,22,9.85,22,22C47,37.15,37.15,47,25,47z"/>
<path d="M11.205,26.5L11,28.29l0.205,1.76c0.008,0.074,0.054,0.126,0.112,0.126c0.057,0,0.103-0.051,0.112-0.125l0.243-1.761
	l-0.243-1.791c-0.009-0.073-0.055-0.126-0.112-0.126C11.259,26.373,11.212,26.426,11.205,26.5z"/>
<path d="M12.85,25.395l-0.275,2.895l0.275,2.832c0.008,0.075,0.057,0.131,0.117,0.131c0.059,0,0.106-0.056,0.116-0.131l0.313-2.832
	l-0.313-2.895c-0.01-0.077-0.058-0.13-0.117-0.13C12.907,25.265,12.858,25.319,12.85,25.395z"/>
<path d="M14.397,24.762l-0.247,3.529l0.247,3.414c0.006,0.105,0.078,0.186,0.165,0.186c0.085,0,0.156-0.08,0.164-0.186l0.281-3.414
	l-0.281-3.53c-0.008-0.106-0.079-0.186-0.164-0.186C14.475,24.575,14.404,24.655,14.397,24.762z"/>
<path d="M15.958,25.017l-0.233,3.274l0.233,3.441c0.006,0.123,0.087,0.215,0.188,0.215c0.1,0,0.181-0.092,0.188-0.213l0.264-3.443
	l-0.264-3.275c-0.007-0.121-0.088-0.212-0.188-0.212C16.045,24.804,15.964,24.896,15.958,25.017z"/>
<path d="M17.52,22.966l-0.22,5.327l0.219,3.441c0.006,0.135,0.113,0.24,0.226,0.24c0.112,0,0.227-0.105,0.227-0.24l0.233-3.441
	l-0.255-5.327c-0.006-0.135-0.107-0.242-0.219-0.242C17.618,22.724,17.525,22.831,17.52,22.966z"/>
<path d="M19.08,21.749l-0.205,6.544l0.205,3.421c0.005,0.149,0.108,0.269,0.235,0.269c0.126,0,0.23-0.119,0.236-0.27l0.231-3.42
	l-0.231-6.544c-0.006-0.151-0.11-0.269-0.236-0.269C19.189,21.479,19.085,21.598,19.08,21.749z"/>
<path d="M20.627,20.964l-0.177,7.33l0.177,3.364c0.004,0.181,0.156,0.322,0.311,0.322s0.311-0.143,0.311-0.322l0.171-3.363
	l-0.212-7.331c-0.005-0.182-0.143-0.325-0.297-0.325C20.755,20.639,20.631,20.782,20.627,20.964z"/>
<path d="M22.174,21.414l-0.148,6.881l0.148,3.313c0.003,0.211,0.153,0.377,0.335,0.377c0.182,0,0.335-0.166,0.335-0.379l0.163-3.31
	l-0.168-6.883c-0.004-0.213-0.151-0.38-0.333-0.38C22.324,21.033,22.177,21.2,22.174,21.414z"/>
<path d="M23.756,19.365l-0.155,8.932l0.156,3.242c0.002,0.236,0.191,0.432,0.398,0.432c0.206,0,0.398-0.195,0.398-0.436l0.15-3.238
	l-0.178-8.933c-0.003-0.24-0.182-0.435-0.388-0.435C23.929,18.929,23.759,19.125,23.756,19.365z"/>
<path d="M34.225,24.377C33.949,20.803,31.348,18,28.172,18c-0.777,0-1.531,0.176-2.199,0.474c-0.26,0.115-0.328,0.235-0.328,0.466
	v12.585c0,0.242,0.162,0.443,0.369,0.469c0.008,0,9.482,0.006,9.543,0.006C37.459,32,39,30.225,39,28.035s-1.543-3.966-3.443-3.966
	C35.084,24.069,34.634,24.179,34.225,24.377z"/>
</svg>
