<?xml version="1.0" encoding="utf-8"?>
<!-- Generator: Adobe Illustrator 15.1.0, SVG Export Plug-In . SVG Version: 6.00 Build 0)  -->
<!DOCTYPE svg PUBLIC "-//W3C//DTD SVG 1.1//EN" "http://www.w3.org/Graphics/SVG/1.1/DTD/svg11.dtd">
<svg version="1.1" id="Layer_1" xmlns="http://www.w3.org/2000/svg" xmlns:xlink="http://www.w3.org/1999/xlink" x="0px" y="0px"
	 width="50px" height="50px" viewBox="-7.75 -7.402 50 50" enable-background="new -7.75 -7.402 50 50" xml:space="preserve">
<g>
	<g>
		<path d="M17.25-4.902c12.405,0,22.5,10.094,22.5,22.5c0,12.408-10.093,22.5-22.5,22.5s-22.5-10.092-22.5-22.5
			S4.844-4.902,17.25-4.902 M17.25-7.402c-13.808,0-25,11.192-25,25c0,13.808,11.192,25,25,25c13.807,0,25-11.191,25-25
			C42.25,3.791,31.059-7.402,17.25-7.402L17.25-7.402z"/>
	</g>
	<path d="M31.645,8.67c-1.058,0.47-2.197,0.787-3.392,0.93c1.219-0.732,2.156-1.889,2.598-3.268
		c-1.143,0.678-2.406,1.169-3.752,1.433C26.021,6.617,24.486,5.9,22.787,5.9c-3.262,0-5.906,2.645-5.906,5.908
		c0,0.462,0.053,0.912,0.152,1.345c-4.909-0.247-9.26-2.598-12.174-6.173c-0.508,0.874-0.8,1.887-0.8,2.97
		c0,2.05,1.042,3.857,2.627,4.918c-0.967-0.031-1.878-0.296-2.674-0.741c0,0.025,0,0.05,0,0.075c0,2.863,2.036,5.25,4.739,5.792
		c-0.495,0.134-1.018,0.208-1.556,0.208c-0.382,0-0.752-0.039-1.112-0.107c0.753,2.346,2.933,4.055,5.518,4.101
		c-2.021,1.585-4.567,2.529-7.335,2.529c-0.476,0-0.946-0.028-1.409-0.082c2.614,1.675,5.719,2.653,9.054,2.653
		c10.864,0,16.805-9.001,16.805-16.807c0-0.254-0.005-0.509-0.017-0.764C29.853,10.895,30.854,9.854,31.645,8.67z"/>
</g>
</svg>
