<?xml version="1.0" encoding="utf-8"?>
<!-- Generator: Adobe Illustrator 15.1.0, SVG Export Plug-In . SVG Version: 6.00 Build 0)  -->
<!DOCTYPE svg PUBLIC "-//W3C//DTD SVG 1.1//EN" "http://www.w3.org/Graphics/SVG/1.1/DTD/svg11.dtd">
<svg version="1.1" id="Layer_1" xmlns="http://www.w3.org/2000/svg" xmlns:xlink="http://www.w3.org/1999/xlink" x="0px" y="0px"
	 width="50px" height="50px" viewBox="-5 -5 50 50" enable-background="new -5 -5 50 50" xml:space="preserve">
<g>
	<g>
		<g>
			<g>
				<g>
					<g>
						<path d="M20-2.5C32.406-2.5,42.5,7.594,42.5,20S32.406,42.5,20,42.5S-2.5,32.407-2.5,20C-2.5,7.592,7.594-2.5,20-2.5 M20-5
							C6.194-5-5,6.194-5,20c0,13.808,11.194,25,25,25c13.809,0,25-11.191,25-25C45,6.194,33.809-5,20-5L20-5z"/>
					</g>
				</g>
			</g>
		</g>
	</g>
	<path d="M29.725,26.189v0.822h-1.61v-0.822c0-0.822,0.27-1.233,0.807-1.233C29.455,24.956,29.725,25.367,29.725,26.189z
		 M22.949,24.956c-0.266,0-0.535,0.127-0.807,0.391v5.415c0.271,0.271,0.541,0.396,0.807,0.396c0.464,0,0.699-0.396,0.699-1.196
		V26.17C23.648,25.367,23.413,24.956,22.949,24.956z M33.318,26.736c0,2.08-0.003,4.279-0.466,6.299
		c-0.325,1.416-1.485,2.461-2.882,2.617c-3.303,0.365-6.645,0.371-9.975,0.365c-3.327,0.006-6.671,0-9.974-0.365
		c-1.395-0.156-2.552-1.201-2.879-2.617c-0.463-2.02-0.463-4.219-0.463-6.299c0-2.076,0.006-4.277,0.47-6.295
		c0.326-1.416,1.483-2.462,2.878-2.616c3.304-0.37,6.645-0.372,9.974-0.37c3.328,0,6.669,0,9.973,0.37
		c1.394,0.156,2.552,1.2,2.88,2.616C33.32,22.459,33.318,24.66,33.318,26.736z M14.28,20.576H8.669v1.68h1.894v10.242h1.791V22.256
		h1.928L14.28,20.576L14.28,20.576z M19.144,23.615h-1.611v6.793c-0.357,0.502-0.694,0.754-1.016,0.754
		c-0.216,0-0.339-0.129-0.378-0.379c-0.015-0.052-0.015-0.246-0.015-0.626v-6.536h-1.609v7.023c0,0.627,0.052,1.053,0.142,1.32
		c0.161,0.449,0.519,0.662,1.039,0.662c0.591,0,1.198-0.359,1.838-1.092V32.5h1.611V23.615z M25.258,26.297
		c0-0.843-0.055-1.432-0.161-1.787c-0.216-0.664-0.646-1.004-1.287-1.004c-0.592,0-1.145,0.324-1.665,0.963v-3.894h-1.608v11.921
		h1.608v-0.86c0.539,0.663,1.092,0.983,1.665,0.983c0.642,0,1.071-0.338,1.287-0.999c0.106-0.379,0.161-0.968,0.161-1.794V26.297z
		 M31.333,26.512c0-0.95-0.161-1.644-0.498-2.093c-0.449-0.609-1.093-0.911-1.899-0.911c-0.821,0-1.463,0.301-1.929,0.911
		c-0.341,0.446-0.497,1.143-0.497,2.093v3.109c0,0.945,0.178,1.646,0.518,2.09c0.467,0.605,1.107,0.911,1.949,0.911
		c0.84,0,1.501-0.319,1.946-0.963c0.195-0.284,0.323-0.608,0.378-0.964c0.016-0.16,0.032-0.518,0.032-1.037v-0.235h-1.641
		c0,0.647-0.022,1.003-0.034,1.091c-0.093,0.43-0.324,0.646-0.721,0.646c-0.55,0-0.82-0.408-0.82-1.233v-1.572h3.219V26.51h-0.003
		V26.512z M15.429,11.15v4.88h-1.804v-4.88c-0.165-0.864-0.526-2.131-1.104-3.81c-0.38-1.119-0.775-2.24-1.157-3.357h1.899
		l1.28,4.731l1.229-4.731h1.824L15.429,11.15z M21.914,15.235c-0.448,0.612-1.082,0.918-1.899,0.918
		c-0.809,0-1.443-0.307-1.893-0.918c-0.346-0.449-0.51-1.157-0.51-2.111V9.981c0-0.961,0.164-1.661,0.51-2.115
		c0.449-0.613,1.082-0.92,1.893-0.92c0.816,0,1.45,0.307,1.899,0.92c0.338,0.454,0.506,1.155,0.506,2.115v3.143
		C22.42,14.078,22.256,14.785,21.914,15.235z M20.792,9.653c0-0.83-0.249-1.245-0.775-1.245c-0.524,0-0.775,0.415-0.775,1.245v3.776
		c0,0.832,0.251,1.246,0.775,1.246c0.526,0,0.775-0.415,0.775-1.246V9.653z M26.807,16.03v-0.98
		c-0.648,0.742-1.265,1.103-1.856,1.103c-0.522,0-0.886-0.212-1.049-0.667c-0.089-0.271-0.144-0.7-0.144-1.334V7.053h1.623v6.611
		c0,0.379,0,0.579,0.02,0.631c0.037,0.253,0.165,0.382,0.382,0.382c0.329,0,0.667-0.253,1.028-0.762V7.053h1.627v8.979h-1.631V16.03
		L26.807,16.03z"/>
</g>
</svg>
